# xmcd
#
# Track frame offsets:
#	150
#	15357
#	31717
#	49030
#	64815
#	84202
#	97655
#	119072
#	134800
#	150727
#	170432
#	188557
#	206045
#	222709
#	244022
#	260812
#
# Disc length: 3690 seconds
#
# Revision: 6
# Processed by: cddbd v1.5.2PL0 Copyright (c) Steve Scherf et al.
# Submitted via: EZCDAudioConverter 7.0.0.1
#
DISCID=dd0e6810
DTITLE=Restless Heart - Greatest Hits
DYEAR=1998
DGENRE=Country
TTITLE0=No End To This Road
TTITLE1=Let The Heartache Ride
TTITLE2=(Back To The) Heartbreak Kid
TTITLE3=That Rock Won't Roll
TTITLE4=I'll Still Be Loving You
TTITLE5=Why Does It Have To Be (Wrong Or Right)
TTITLE6=The Bluest Eyes In Texas
TTITLE7=A Tender Lie
TTITLE8=Big Dreams In A Small Town
TTITLE9=Fast Movin' Train
TTITLE10=Dancy's Dream
TTITLE11=Long Lost Friend
TTITLE12=When She Cries
TTITLE13=Tell Me What You Dream
TTITLE14=For Lack Of Better Words
TTITLE15=Somebody's Gonna Get That Girl
EXTD=
EXTT0=
EXTT1=
EXTT2=
EXTT3=
EXTT4=
EXTT5=
EXTT6=
EXTT7=
EXTT8=
EXTT9=
EXTT10=
EXTT11=
EXTT12=
EXTT13=
EXTT14=
EXTT15=
PLAYORDER=
